<mxfile host="app.diagrams.net" agent="Mozilla/5.0 (Windows NT 10.0; Win64; x64) AppleWebKit/537.36 (KHTML, like Gecko) Chrome/139.0.0.0 Safari/537.36" version="28.1.2">
  <diagram id="yPxyJZ8AM_hMuL3Unpa9" name="complex gitflow">
    <mxGraphModel dx="2306" dy="491" grid="1" gridSize="10" guides="1" tooltips="1" connect="1" arrows="1" fold="1" page="1" pageScale="1" pageWidth="1100" pageHeight="850" math="0" shadow="0">
      <root>
        <mxCell id="0" />
        <mxCell id="1" parent="0" />
        <mxCell id="uWUnNED6HEl2aK5fdaIb-7" value="Merge hotfix to main" style="text;html=1;strokeColor=none;fillColor=none;align=center;verticalAlign=middle;whiteSpace=wrap;overflow=hidden;" parent="1" vertex="1">
          <mxGeometry x="950" y="220" width="80" height="30" as="geometry" />
        </mxCell>
        <mxCell id="uWUnNED6HEl2aK5fdaIb-8" value="" style="edgeStyle=orthogonalEdgeStyle;rounded=0;html=1;jettySize=auto;orthogonalLoop=1;plain-blue;endArrow=none;endFill=0;strokeWidth=4;strokeColor=#000000;entryX=0;entryY=0.5;entryDx=0;entryDy=0;entryPerimeter=0;" parent="1" edge="1">
          <mxGeometry x="292.25" y="211" as="geometry">
            <mxPoint x="714" y="211" as="targetPoint" />
            <mxPoint x="322.75" y="211" as="sourcePoint" />
          </mxGeometry>
        </mxCell>
        <mxCell id="uWUnNED6HEl2aK5fdaIb-9" style="edgeStyle=orthogonalEdgeStyle;curved=1;rounded=0;html=1;exitX=0.5;exitY=1;exitPerimeter=0;entryX=0;entryY=0.5;entryPerimeter=0;endArrow=none;endFill=0;jettySize=auto;orthogonalLoop=1;strokeWidth=4;fontSize=15;exitDx=0;exitDy=0;" parent="1" source="LWUsubDdrN91vzY0I-GM-12" target="uWUnNED6HEl2aK5fdaIb-15" edge="1">
          <mxGeometry relative="1" as="geometry" />
        </mxCell>
        <mxCell id="uWUnNED6HEl2aK5fdaIb-10" value="" style="verticalLabelPosition=bottom;verticalAlign=top;html=1;strokeWidth=4;shape=mxgraph.flowchart.on-page_reference;plain-blue;gradientColor=none;fillColor=#99FF99;strokeColor=#000000;" parent="1" vertex="1">
          <mxGeometry x="211.25" y="196" width="30" height="30" as="geometry" />
        </mxCell>
        <mxCell id="uWUnNED6HEl2aK5fdaIb-80" value="" style="edgeStyle=orthogonalEdgeStyle;curved=1;rounded=0;orthogonalLoop=1;jettySize=auto;html=1;endArrow=none;endFill=0;strokeWidth=4;entryX=0;entryY=0.5;entryDx=0;entryDy=0;entryPerimeter=0;" parent="1" source="LWUsubDdrN91vzY0I-GM-5" target="uWUnNED6HEl2aK5fdaIb-109" edge="1">
          <mxGeometry relative="1" as="geometry">
            <mxPoint x="1055.4999999999995" y="211" as="targetPoint" />
          </mxGeometry>
        </mxCell>
        <mxCell id="uWUnNED6HEl2aK5fdaIb-11" value="" style="verticalLabelPosition=bottom;verticalAlign=top;html=1;strokeWidth=4;shape=mxgraph.flowchart.on-page_reference;plain-blue;gradientColor=none;strokeColor=#000000;fillColor=#99FF99;" parent="1" vertex="1">
          <mxGeometry x="713" y="196" width="30" height="30" as="geometry" />
        </mxCell>
        <mxCell id="uWUnNED6HEl2aK5fdaIb-109" value="" style="verticalLabelPosition=bottom;verticalAlign=top;html=1;strokeWidth=4;shape=mxgraph.flowchart.on-page_reference;plain-blue;gradientColor=none;strokeColor=#33001A;fillColor=#99FF99;" parent="1" vertex="1">
          <mxGeometry x="920.88" y="196" width="30" height="30" as="geometry" />
        </mxCell>
        <mxCell id="uWUnNED6HEl2aK5fdaIb-12" value="" style="edgeStyle=orthogonalEdgeStyle;rounded=0;html=1;jettySize=auto;orthogonalLoop=1;strokeWidth=4;endArrow=none;endFill=0;" parent="1" target="uWUnNED6HEl2aK5fdaIb-10" edge="1">
          <mxGeometry x="192.25" y="211" as="geometry">
            <mxPoint x="150" y="211" as="sourcePoint" />
          </mxGeometry>
        </mxCell>
        <mxCell id="uWUnNED6HEl2aK5fdaIb-13" value="master" style="text;html=1;strokeColor=none;fillColor=none;align=center;verticalAlign=middle;whiteSpace=wrap;overflow=hidden;fontSize=14;fontStyle=1;fontFamily=Courier New;" parent="1" vertex="1">
          <mxGeometry x="83" y="190" width="50" height="42" as="geometry" />
        </mxCell>
        <mxCell id="uWUnNED6HEl2aK5fdaIb-14" style="edgeStyle=orthogonalEdgeStyle;curved=1;rounded=0;html=1;exitX=1;exitY=0.5;exitPerimeter=0;endArrow=none;endFill=0;jettySize=auto;orthogonalLoop=1;strokeWidth=4;fontSize=15;" parent="1" source="uWUnNED6HEl2aK5fdaIb-15" target="uWUnNED6HEl2aK5fdaIb-17" edge="1">
          <mxGeometry relative="1" as="geometry" />
        </mxCell>
        <mxCell id="uWUnNED6HEl2aK5fdaIb-15" value="" style="verticalLabelPosition=bottom;verticalAlign=top;html=1;strokeWidth=4;shape=mxgraph.flowchart.on-page_reference;plain-purple;gradientColor=none;strokeColor=#000000;fillColor=#D5E8D4;" parent="1" vertex="1">
          <mxGeometry x="339.75" y="281" width="30" height="30" as="geometry" />
        </mxCell>
        <mxCell id="uWUnNED6HEl2aK5fdaIb-16" style="edgeStyle=orthogonalEdgeStyle;curved=1;rounded=0;html=1;exitX=1;exitY=0.5;exitPerimeter=0;entryX=0;entryY=0.5;entryPerimeter=0;endArrow=none;endFill=0;jettySize=auto;orthogonalLoop=1;strokeWidth=4;fontSize=15;" parent="1" source="uWUnNED6HEl2aK5fdaIb-17" target="uWUnNED6HEl2aK5fdaIb-19" edge="1">
          <mxGeometry relative="1" as="geometry" />
        </mxCell>
        <mxCell id="uWUnNED6HEl2aK5fdaIb-17" value="" style="verticalLabelPosition=bottom;verticalAlign=top;html=1;strokeWidth=4;shape=mxgraph.flowchart.on-page_reference;plain-purple;gradientColor=none;strokeColor=#000000;fillColor=#D5E8D4;" parent="1" vertex="1">
          <mxGeometry x="416.75" y="281" width="30" height="30" as="geometry" />
        </mxCell>
        <mxCell id="uWUnNED6HEl2aK5fdaIb-18" style="edgeStyle=orthogonalEdgeStyle;curved=1;rounded=0;html=1;exitX=1;exitY=0.5;exitPerimeter=0;entryX=0;entryY=0.5;entryPerimeter=0;endArrow=none;endFill=0;jettySize=auto;orthogonalLoop=1;strokeWidth=4;fontSize=15;exitDx=0;exitDy=0;" parent="1" source="LWUsubDdrN91vzY0I-GM-22" target="uWUnNED6HEl2aK5fdaIb-11" edge="1">
          <mxGeometry relative="1" as="geometry">
            <mxPoint x="693.75" y="296" as="sourcePoint" />
          </mxGeometry>
        </mxCell>
        <mxCell id="uWUnNED6HEl2aK5fdaIb-19" value="" style="verticalLabelPosition=bottom;verticalAlign=top;html=1;strokeWidth=4;shape=mxgraph.flowchart.on-page_reference;plain-purple;gradientColor=none;strokeColor=#000000;fillColor=#D5E8D4;" parent="1" vertex="1">
          <mxGeometry x="549.75" y="281" width="30" height="30" as="geometry" />
        </mxCell>
        <mxCell id="uWUnNED6HEl2aK5fdaIb-20" value="dev" style="text;html=1;strokeColor=none;fillColor=none;align=left;verticalAlign=middle;whiteSpace=wrap;overflow=hidden;fontSize=14;fontStyle=1;fontFamily=Courier New;" parent="1" vertex="1">
          <mxGeometry x="65.25" y="285" width="51.25" height="20" as="geometry" />
        </mxCell>
        <mxCell id="uWUnNED6HEl2aK5fdaIb-75" style="edgeStyle=orthogonalEdgeStyle;rounded=0;orthogonalLoop=1;jettySize=auto;html=1;entryX=0.5;entryY=1;entryDx=0;entryDy=0;entryPerimeter=0;endArrow=none;endFill=0;strokeWidth=4;curved=1;" parent="1" source="uWUnNED6HEl2aK5fdaIb-69" target="uWUnNED6HEl2aK5fdaIb-17" edge="1">
          <mxGeometry relative="1" as="geometry" />
        </mxCell>
        <mxCell id="uWUnNED6HEl2aK5fdaIb-69" value="" style="verticalLabelPosition=bottom;verticalAlign=top;html=1;strokeWidth=4;shape=mxgraph.flowchart.on-page_reference;plain-purple;gradientColor=none;strokeColor=#000000;fillColor=#D5E8D4;" parent="1" vertex="1">
          <mxGeometry x="484.63" y="361" width="30" height="30" as="geometry" />
        </mxCell>
        <mxCell id="uWUnNED6HEl2aK5fdaIb-76" value="feature-A-branch" style="text;html=1;strokeColor=none;fillColor=none;align=left;verticalAlign=middle;whiteSpace=wrap;overflow=hidden;fontSize=14;fontStyle=1;fontFamily=Courier New;" parent="1" vertex="1">
          <mxGeometry x="29" y="364" width="158.75" height="20" as="geometry" />
        </mxCell>
        <mxCell id="uWUnNED6HEl2aK5fdaIb-82" value="" style="verticalLabelPosition=bottom;verticalAlign=top;html=1;strokeWidth=4;shape=mxgraph.flowchart.on-page_reference;plain-purple;gradientColor=none;strokeColor=#000000;fillColor=#D5E8D4;" parent="1" vertex="1">
          <mxGeometry x="858" y="441" width="30" height="30" as="geometry" />
        </mxCell>
        <mxCell id="uWUnNED6HEl2aK5fdaIb-97" style="edgeStyle=orthogonalEdgeStyle;curved=1;rounded=0;orthogonalLoop=1;jettySize=auto;html=1;exitX=0;exitY=0.5;exitDx=0;exitDy=0;exitPerimeter=0;entryX=0.5;entryY=1;entryDx=0;entryDy=0;entryPerimeter=0;endArrow=none;endFill=0;strokeWidth=4;fontFamily=Courier New;fontColor=#009900;" parent="1" source="uWUnNED6HEl2aK5fdaIb-82" target="LWUsubDdrN91vzY0I-GM-5" edge="1">
          <mxGeometry relative="1" as="geometry">
            <mxPoint x="898.75" y="455" as="sourcePoint" />
            <Array as="points">
              <mxPoint x="817" y="456" />
            </Array>
          </mxGeometry>
        </mxCell>
        <mxCell id="uWUnNED6HEl2aK5fdaIb-86" value="hotfix/ fix-prod-bug" style="text;html=1;strokeColor=none;fillColor=none;align=left;verticalAlign=middle;whiteSpace=wrap;overflow=hidden;fontSize=14;fontStyle=1;fontFamily=Courier New;" parent="1" vertex="1">
          <mxGeometry x="-18.5" y="445" width="240" height="20" as="geometry" />
        </mxCell>
        <mxCell id="uWUnNED6HEl2aK5fdaIb-87" value="The development branch" style="text;html=1;strokeColor=none;fillColor=none;align=left;verticalAlign=middle;whiteSpace=wrap;overflow=hidden;fontSize=14;fontStyle=0;fontColor=#009900;" parent="1" vertex="1">
          <mxGeometry x="22.25" y="311.5" width="240" height="20" as="geometry" />
        </mxCell>
        <mxCell id="uWUnNED6HEl2aK5fdaIb-88" value="hot-fix branch" style="text;html=1;strokeColor=none;fillColor=none;align=left;verticalAlign=middle;whiteSpace=wrap;overflow=hidden;fontSize=14;fontStyle=0;fontColor=#009900;" parent="1" vertex="1">
          <mxGeometry x="25.75" y="465" width="240" height="20" as="geometry" />
        </mxCell>
        <mxCell id="uWUnNED6HEl2aK5fdaIb-89" value="The feature branch" style="text;html=1;strokeColor=none;fillColor=none;align=left;verticalAlign=middle;whiteSpace=wrap;overflow=hidden;fontSize=14;fontStyle=0;fontColor=#009900;" parent="1" vertex="1">
          <mxGeometry x="38.25" y="384" width="240" height="20" as="geometry" />
        </mxCell>
        <mxCell id="uWUnNED6HEl2aK5fdaIb-90" value="The master branch" style="text;html=1;strokeColor=none;fillColor=none;align=left;verticalAlign=middle;whiteSpace=wrap;overflow=hidden;fontSize=14;fontStyle=0;fontColor=#009900;" parent="1" vertex="1">
          <mxGeometry x="65.25" y="220" width="146.75" height="20" as="geometry" />
        </mxCell>
        <mxCell id="uWUnNED6HEl2aK5fdaIb-91" value="" style="endArrow=classic;html=1;strokeWidth=1;fontFamily=Courier New;fontColor=#009900;" parent="1" edge="1">
          <mxGeometry width="50" height="50" relative="1" as="geometry">
            <mxPoint x="160" y="459.41" as="sourcePoint" />
            <mxPoint x="310" y="459.91" as="targetPoint" />
          </mxGeometry>
        </mxCell>
        <mxCell id="uWUnNED6HEl2aK5fdaIb-92" value="" style="endArrow=classic;html=1;strokeWidth=1;fontFamily=Courier New;fontColor=#009900;" parent="1" edge="1">
          <mxGeometry width="50" height="50" relative="1" as="geometry">
            <mxPoint x="174" y="374" as="sourcePoint" />
            <mxPoint x="300.75" y="374" as="targetPoint" />
          </mxGeometry>
        </mxCell>
        <mxCell id="uWUnNED6HEl2aK5fdaIb-93" value="" style="endArrow=classic;html=1;strokeWidth=1;fontFamily=Courier New;fontColor=#009900;" parent="1" edge="1">
          <mxGeometry width="50" height="50" relative="1" as="geometry">
            <mxPoint x="140" y="296" as="sourcePoint" />
            <mxPoint x="296.75" y="296" as="targetPoint" />
          </mxGeometry>
        </mxCell>
        <mxCell id="uWUnNED6HEl2aK5fdaIb-103" value="Tag: 1.0.0" style="text;html=1;strokeColor=none;fillColor=none;align=center;verticalAlign=middle;whiteSpace=wrap;overflow=hidden;fontSize=14;" parent="1" vertex="1">
          <mxGeometry x="186.25" y="168" width="70" height="20" as="geometry" />
        </mxCell>
        <mxCell id="uWUnNED6HEl2aK5fdaIb-107" value="" style="edgeStyle=orthogonalEdgeStyle;curved=1;rounded=0;orthogonalLoop=1;jettySize=auto;html=1;endArrow=none;endFill=0;strokeWidth=4;fontFamily=Courier New;fontColor=#009900;" parent="1" source="uWUnNED6HEl2aK5fdaIb-104" target="uWUnNED6HEl2aK5fdaIb-106" edge="1">
          <mxGeometry relative="1" as="geometry" />
        </mxCell>
        <mxCell id="uWUnNED6HEl2aK5fdaIb-106" value="" style="verticalLabelPosition=bottom;verticalAlign=top;html=1;strokeWidth=4;shape=mxgraph.flowchart.on-page_reference;plain-purple;gradientColor=none;strokeColor=#000000;fillColor=#D5E8D4;" parent="1" vertex="1">
          <mxGeometry x="1107.75" y="281" width="30" height="30" as="geometry" />
        </mxCell>
        <mxCell id="fSnZ5vnYTslC5NarKmr_-5" value="&lt;div style=&quot;&quot;&gt;&lt;span&gt;Hotfix Work&lt;/span&gt;&lt;/div&gt;" style="text;html=1;strokeColor=none;fillColor=none;align=left;verticalAlign=middle;whiteSpace=wrap;overflow=hidden;fontSize=12;fontStyle=0;fontColor=#000000;" parent="1" vertex="1">
          <mxGeometry x="843.51" y="471" width="77.37" height="36" as="geometry" />
        </mxCell>
        <mxCell id="fSnZ5vnYTslC5NarKmr_-9" value="" style="edgeStyle=orthogonalEdgeStyle;rounded=0;orthogonalLoop=1;jettySize=auto;html=1;fontSize=12;fontColor=#000000;entryX=0;entryY=0.5;entryDx=0;entryDy=0;" parent="1" edge="1">
          <mxGeometry relative="1" as="geometry">
            <mxPoint x="184.25" y="180" as="targetPoint" />
            <Array as="points">
              <mxPoint x="164.25" y="180" />
              <mxPoint x="164.25" y="180" />
            </Array>
            <mxPoint x="102" y="180" as="sourcePoint" />
          </mxGeometry>
        </mxCell>
        <mxCell id="fSnZ5vnYTslC5NarKmr_-8" value="&lt;span style=&quot;text-align: center; font-size: 11px;&quot;&gt;Each tag represents a production release.&lt;/span&gt;" style="text;html=1;strokeColor=none;fillColor=none;align=left;verticalAlign=middle;whiteSpace=wrap;overflow=hidden;fontSize=11;fontStyle=0;fontColor=#000000;" parent="1" vertex="1">
          <mxGeometry x="-16.5" y="161" width="120" height="38" as="geometry" />
        </mxCell>
        <mxCell id="9hBKPDzoitwpIBdzFDQ7-61" value="Tag: 1.0.2" style="text;html=1;strokeColor=none;fillColor=none;align=center;verticalAlign=middle;whiteSpace=wrap;overflow=hidden;fontSize=14;" parent="1" vertex="1">
          <mxGeometry x="899.88" y="165" width="70" height="20" as="geometry" />
        </mxCell>
        <mxCell id="LWUsubDdrN91vzY0I-GM-11" value="Feature-A code" style="text;html=1;align=center;verticalAlign=middle;resizable=0;points=[];autosize=1;strokeColor=none;fillColor=none;" vertex="1" parent="1">
          <mxGeometry x="441" y="390" width="110" height="30" as="geometry" />
        </mxCell>
        <mxCell id="LWUsubDdrN91vzY0I-GM-13" value="" style="edgeStyle=orthogonalEdgeStyle;rounded=0;html=1;jettySize=auto;orthogonalLoop=1;plain-blue;endArrow=none;endFill=0;strokeWidth=4;strokeColor=#000000;entryX=0;entryY=0.5;entryDx=0;entryDy=0;entryPerimeter=0;" edge="1" parent="1" source="uWUnNED6HEl2aK5fdaIb-10" target="LWUsubDdrN91vzY0I-GM-12">
          <mxGeometry x="292.25" y="211" as="geometry">
            <mxPoint x="622" y="211" as="targetPoint" />
            <mxPoint x="292" y="211" as="sourcePoint" />
          </mxGeometry>
        </mxCell>
        <mxCell id="LWUsubDdrN91vzY0I-GM-12" value="" style="verticalLabelPosition=bottom;verticalAlign=top;html=1;strokeWidth=4;shape=mxgraph.flowchart.on-page_reference;plain-blue;gradientColor=none;strokeColor=#000000;fillColor=#B5E3FE;" vertex="1" parent="1">
          <mxGeometry x="291.75" y="196" width="30" height="30" as="geometry" />
        </mxCell>
        <mxCell id="LWUsubDdrN91vzY0I-GM-17" style="edgeStyle=orthogonalEdgeStyle;curved=1;rounded=0;orthogonalLoop=1;jettySize=auto;html=1;entryX=0.5;entryY=1;entryDx=0;entryDy=0;entryPerimeter=0;endArrow=none;endFill=0;strokeWidth=4;fontFamily=Courier New;fontColor=#009900;exitX=1;exitY=0.5;exitDx=0;exitDy=0;exitPerimeter=0;" edge="1" parent="1" source="uWUnNED6HEl2aK5fdaIb-69" target="uWUnNED6HEl2aK5fdaIb-19">
          <mxGeometry relative="1" as="geometry">
            <mxPoint x="503" y="378" as="sourcePoint" />
            <mxPoint x="547" y="293" as="targetPoint" />
          </mxGeometry>
        </mxCell>
        <mxCell id="LWUsubDdrN91vzY0I-GM-45" value="Merge Feature-A&lt;div&gt;to dev&lt;/div&gt;" style="edgeLabel;html=1;align=center;verticalAlign=middle;resizable=0;points=[];fontFamily=Helvetica;fontSize=15;fontColor=default;labelBackgroundColor=default;" vertex="1" connectable="0" parent="LWUsubDdrN91vzY0I-GM-17">
          <mxGeometry x="0.3943" y="-5" relative="1" as="geometry">
            <mxPoint x="54" as="offset" />
          </mxGeometry>
        </mxCell>
        <mxCell id="LWUsubDdrN91vzY0I-GM-19" value="Merge Feature-A&amp;nbsp;&lt;div&gt;code&amp;nbsp;&lt;span style=&quot;background-color: transparent; color: light-dark(rgb(0, 0, 0), rgb(255, 255, 255));&quot;&gt;to dev&lt;/span&gt;&lt;/div&gt;" style="text;html=1;align=center;verticalAlign=middle;resizable=0;points=[];autosize=1;strokeColor=none;fillColor=none;" vertex="1" parent="1">
          <mxGeometry x="507" y="245" width="120" height="40" as="geometry" />
        </mxCell>
        <mxCell id="LWUsubDdrN91vzY0I-GM-20" style="edgeStyle=orthogonalEdgeStyle;curved=1;rounded=0;html=1;exitX=1;exitY=0.5;exitPerimeter=0;endArrow=none;endFill=0;jettySize=auto;orthogonalLoop=1;strokeWidth=4;fontSize=15;exitDx=0;exitDy=0;" edge="1" parent="1" target="LWUsubDdrN91vzY0I-GM-22" source="uWUnNED6HEl2aK5fdaIb-19">
          <mxGeometry relative="1" as="geometry">
            <mxPoint x="599" y="296" as="sourcePoint" />
          </mxGeometry>
        </mxCell>
        <mxCell id="LWUsubDdrN91vzY0I-GM-21" style="edgeStyle=orthogonalEdgeStyle;curved=1;rounded=0;html=1;exitX=1;exitY=0.5;exitPerimeter=0;endArrow=none;endFill=0;jettySize=auto;orthogonalLoop=1;strokeWidth=4;fontSize=15;" edge="1" parent="1" source="uWUnNED6HEl2aK5fdaIb-104">
          <mxGeometry relative="1" as="geometry">
            <mxPoint x="1016" y="296" as="targetPoint" />
          </mxGeometry>
        </mxCell>
        <mxCell id="LWUsubDdrN91vzY0I-GM-22" value="" style="verticalLabelPosition=bottom;verticalAlign=top;html=1;strokeWidth=4;shape=mxgraph.flowchart.on-page_reference;plain-purple;gradientColor=none;strokeColor=#000000;fillColor=#D5E8D4;" vertex="1" parent="1">
          <mxGeometry x="614.75" y="281" width="30" height="30" as="geometry" />
        </mxCell>
        <mxCell id="LWUsubDdrN91vzY0I-GM-23" value="Release to&amp;nbsp;&lt;div&gt;main&lt;/div&gt;" style="text;html=1;align=center;verticalAlign=middle;resizable=0;points=[];autosize=1;strokeColor=none;fillColor=none;" vertex="1" parent="1">
          <mxGeometry x="672" y="241" width="80" height="40" as="geometry" />
        </mxCell>
        <mxCell id="LWUsubDdrN91vzY0I-GM-24" value="" style="edgeStyle=orthogonalEdgeStyle;curved=1;rounded=0;orthogonalLoop=1;jettySize=auto;html=1;endArrow=none;endFill=0;strokeWidth=4;entryX=0;entryY=0.5;entryDx=0;entryDy=0;entryPerimeter=0;" edge="1" parent="1" source="uWUnNED6HEl2aK5fdaIb-11" target="LWUsubDdrN91vzY0I-GM-5">
          <mxGeometry relative="1" as="geometry">
            <mxPoint x="1182" y="211" as="targetPoint" />
            <mxPoint x="950" y="211" as="sourcePoint" />
          </mxGeometry>
        </mxCell>
        <mxCell id="LWUsubDdrN91vzY0I-GM-5" value="" style="verticalLabelPosition=bottom;verticalAlign=top;html=1;strokeWidth=4;shape=mxgraph.flowchart.on-page_reference;plain-blue;gradientColor=#EA6B66;strokeColor=#B85450;fillColor=#F8CECC;" vertex="1" parent="1">
          <mxGeometry x="802.25" y="196" width="30" height="30" as="geometry" />
        </mxCell>
        <mxCell id="LWUsubDdrN91vzY0I-GM-25" value="" style="verticalLabelPosition=bottom;verticalAlign=top;html=1;strokeWidth=4;shape=mxgraph.flowchart.on-page_reference;plain-blue;gradientColor=none;strokeColor=#33001A;fillColor=#B5E3FE;" vertex="1" parent="1">
          <mxGeometry x="1116" y="196" width="30" height="30" as="geometry" />
        </mxCell>
        <mxCell id="LWUsubDdrN91vzY0I-GM-28" style="edgeStyle=orthogonalEdgeStyle;curved=1;rounded=0;orthogonalLoop=1;jettySize=auto;html=1;entryX=0.5;entryY=1;entryDx=0;entryDy=0;entryPerimeter=0;endArrow=none;endFill=0;strokeWidth=4;fontFamily=Courier New;fontColor=#009900;exitX=1;exitY=0.5;exitDx=0;exitDy=0;exitPerimeter=0;" edge="1" parent="1" source="uWUnNED6HEl2aK5fdaIb-82" target="uWUnNED6HEl2aK5fdaIb-109">
          <mxGeometry relative="1" as="geometry">
            <mxPoint x="910" y="454.5" as="sourcePoint" />
            <mxPoint x="970" y="374.5" as="targetPoint" />
          </mxGeometry>
        </mxCell>
        <mxCell id="uWUnNED6HEl2aK5fdaIb-104" value="" style="verticalLabelPosition=bottom;verticalAlign=top;html=1;strokeWidth=4;shape=mxgraph.flowchart.on-page_reference;plain-purple;gradientColor=none;strokeColor=#000000;fillColor=#D5E8D4;" parent="1" vertex="1">
          <mxGeometry x="1006" y="281" width="30" height="30" as="geometry" />
        </mxCell>
        <mxCell id="LWUsubDdrN91vzY0I-GM-30" style="edgeStyle=orthogonalEdgeStyle;curved=1;rounded=0;orthogonalLoop=1;jettySize=auto;html=1;entryX=0;entryY=0.5;entryDx=0;entryDy=0;entryPerimeter=0;endArrow=none;endFill=0;strokeWidth=4;fontFamily=Courier New;fontColor=#009900;exitX=1;exitY=0.5;exitDx=0;exitDy=0;exitPerimeter=0;" edge="1" parent="1" source="uWUnNED6HEl2aK5fdaIb-82" target="uWUnNED6HEl2aK5fdaIb-104">
          <mxGeometry relative="1" as="geometry">
            <mxPoint x="930" y="470" as="sourcePoint" />
            <mxPoint x="978" y="240" as="targetPoint" />
          </mxGeometry>
        </mxCell>
        <mxCell id="LWUsubDdrN91vzY0I-GM-31" value="" style="edgeStyle=orthogonalEdgeStyle;curved=1;rounded=0;orthogonalLoop=1;jettySize=auto;html=1;endArrow=none;endFill=0;strokeWidth=4;entryX=0;entryY=0.5;entryDx=0;entryDy=0;entryPerimeter=0;exitX=1;exitY=0.5;exitDx=0;exitDy=0;exitPerimeter=0;" edge="1" parent="1" source="uWUnNED6HEl2aK5fdaIb-109" target="LWUsubDdrN91vzY0I-GM-25">
          <mxGeometry relative="1" as="geometry">
            <mxPoint x="1052" y="211" as="targetPoint" />
            <mxPoint x="963" y="211" as="sourcePoint" />
          </mxGeometry>
        </mxCell>
        <mxCell id="LWUsubDdrN91vzY0I-GM-33" value="Tag: 1.0.1" style="text;html=1;strokeColor=none;fillColor=none;align=center;verticalAlign=middle;whiteSpace=wrap;overflow=hidden;fontSize=14;" vertex="1" parent="1">
          <mxGeometry x="693" y="165" width="70" height="20" as="geometry" />
        </mxCell>
        <mxCell id="LWUsubDdrN91vzY0I-GM-39" value="" style="endArrow=none;dashed=1;html=1;rounded=0;strokeColor=default;strokeWidth=4;align=center;verticalAlign=middle;fontFamily=Helvetica;fontSize=15;fontColor=default;labelBackgroundColor=default;edgeStyle=orthogonalEdgeStyle;curved=1;" edge="1" parent="1">
          <mxGeometry width="50" height="50" relative="1" as="geometry">
            <mxPoint x="516" y="381" as="sourcePoint" />
            <mxPoint x="1070" y="380" as="targetPoint" />
          </mxGeometry>
        </mxCell>
        <mxCell id="LWUsubDdrN91vzY0I-GM-40" value="" style="endArrow=none;dashed=1;html=1;rounded=0;strokeColor=default;strokeWidth=4;align=center;verticalAlign=middle;fontFamily=Helvetica;fontSize=15;fontColor=default;labelBackgroundColor=default;edgeStyle=orthogonalEdgeStyle;curved=1;" edge="1" parent="1">
          <mxGeometry width="50" height="50" relative="1" as="geometry">
            <mxPoint x="646" y="297" as="sourcePoint" />
            <mxPoint x="989" y="296" as="targetPoint" />
          </mxGeometry>
        </mxCell>
        <mxCell id="LWUsubDdrN91vzY0I-GM-41" value="" style="endArrow=none;dashed=1;html=1;rounded=0;strokeColor=default;strokeWidth=4;align=center;verticalAlign=middle;fontFamily=Helvetica;fontSize=15;fontColor=default;labelBackgroundColor=default;edgeStyle=orthogonalEdgeStyle;curved=1;" edge="1" parent="1">
          <mxGeometry width="50" height="50" relative="1" as="geometry">
            <mxPoint x="360" y="459" as="sourcePoint" />
            <mxPoint x="856" y="459.26" as="targetPoint" />
          </mxGeometry>
        </mxCell>
        <mxCell id="LWUsubDdrN91vzY0I-GM-42" value="" style="endArrow=none;dashed=1;html=1;rounded=0;strokeColor=default;strokeWidth=4;align=center;verticalAlign=middle;fontFamily=Helvetica;fontSize=15;fontColor=default;labelBackgroundColor=default;edgeStyle=orthogonalEdgeStyle;curved=1;" edge="1" parent="1">
          <mxGeometry width="50" height="50" relative="1" as="geometry">
            <mxPoint x="889" y="459" as="sourcePoint" />
            <mxPoint x="1054" y="459.26" as="targetPoint" />
          </mxGeometry>
        </mxCell>
        <mxCell id="LWUsubDdrN91vzY0I-GM-43" value="" style="endArrow=none;dashed=1;html=1;rounded=0;strokeColor=default;strokeWidth=4;align=center;verticalAlign=middle;fontFamily=Helvetica;fontSize=15;fontColor=default;labelBackgroundColor=default;edgeStyle=orthogonalEdgeStyle;curved=1;" edge="1" parent="1">
          <mxGeometry width="50" height="50" relative="1" as="geometry">
            <mxPoint x="360" y="380" as="sourcePoint" />
            <mxPoint x="494.75" y="380.26" as="targetPoint" />
          </mxGeometry>
        </mxCell>
        <mxCell id="LWUsubDdrN91vzY0I-GM-44" value="Merge hotfix&lt;div&gt;to dev&lt;/div&gt;" style="text;html=1;align=center;verticalAlign=middle;resizable=0;points=[];autosize=1;strokeColor=none;fillColor=none;fontFamily=Helvetica;fontSize=15;fontColor=default;labelBackgroundColor=default;" vertex="1" parent="1">
          <mxGeometry x="968" y="308" width="110" height="50" as="geometry" />
        </mxCell>
      </root>
    </mxGraphModel>
  </diagram>
</mxfile>
